<svg width="16" height="16" viewBox="0 0 16 16" fill="none" xmlns="http://www.w3.org/2000/svg">
  <!-- Background gradient rounded square -->
  <defs>
    <linearGradient id="bgGradient16" x1="0%" y1="0%" x2="100%" y2="100%">
      <stop offset="0%" style="stop-color:#10b981;stop-opacity:1" />
      <stop offset="100%" style="stop-color:#0d9488;stop-opacity:1" />
    </linearGradient>
  </defs>
  
  <!-- Rounded background -->
  <rect x="0" y="0" width="16" height="16" rx="3" ry="3" fill="url(#bgGradient16)"/>
  
  <!-- Shield shape with eye icon representing clarity and protection -->
  <g transform="translate(2, 1)">
    <!-- Shield background -->
    <path
      d="M6 1L1.5 3.5V6C1.5 8.275 3.42 10.37 6 11C8.58 10.37 10.5 8.275 10.5 6V3.5L6 1Z"
      fill="white"
      fill-opacity="0.95"
    />
    <!-- Eye outer circle -->
    <path
      d="M6 4.5C6.83 4.5 7.5 5.17 7.5 6C7.5 6.83 6.83 7.5 6 7.5C5.17 7.5 4.5 6.83 4.5 6C4.5 5.17 5.17 4.5 6 4.5Z"
      fill="#059669"
    />
    <!-- Eye inner circle (pupil) -->
    <path
      d="M6 5.5C6.275 5.5 6.5 5.725 6.5 6C6.5 6.275 6.275 6.5 6 6.5C5.725 6.5 5.5 6.275 5.5 6C5.5 5.725 5.725 5.5 6 5.5Z"
      fill="white"
    />
  </g>
</svg>
